<svg width="24" height="21" viewBox="0 0 24 21" fill="none" xmlns="http://www.w3.org/2000/svg">
<path d="M6.82635 7.50009C5.47623 7.50009 4.15642 7.88701 3.03383 8.61193C1.91125 9.33685 1.0363 10.3672 0.519628 11.5727C0.00295771 12.7782 -0.132227 14.1047 0.131169 15.3844C0.394565 16.6642 1.04471 17.8397 1.99939 18.7623C2.95408 19.685 4.17041 20.3133 5.4946 20.5679C6.81878 20.8224 8.19133 20.6918 9.43868 20.1925C10.686 19.6931 11.7522 18.8475 12.5022 17.7626C13.2523 16.6777 13.6527 15.4022 13.6527 14.0974C13.6527 13.231 13.4761 12.3731 13.1331 11.5727C12.79 10.7723 12.2872 10.045 11.6533 9.43239C11.0194 8.81977 10.2669 8.33382 9.43868 8.00228C8.61047 7.67074 7.7228 7.50009 6.82635 7.50009Z" fill="white"/>
<path d="M6.82635 7.50009C5.47623 7.50009 4.15642 7.88701 3.03383 8.61193C1.91125 9.33685 1.0363 10.3672 0.519628 11.5727C0.00295771 12.7782 -0.132227 14.1047 0.131169 15.3844C0.394565 16.6642 1.04471 17.8397 1.99939 18.7623C2.95408 19.685 4.17041 20.3133 5.4946 20.5679C6.81878 20.8224 8.19133 20.6918 9.43868 20.1925C10.686 19.6931 11.7522 18.8475 12.5022 17.7626C13.2523 16.6777 13.6527 15.4022 13.6527 14.0974C13.6527 13.231 13.4761 12.3731 13.1331 11.5727C12.79 10.7723 12.2872 10.045 11.6533 9.43239C11.0194 8.81977 10.2669 8.33382 9.43868 8.00228C8.61047 7.67074 7.7228 7.50009 6.82635 7.50009Z" fill="white"/>
<path d="M6.82648 16.118C7.41266 16.118 7.98117 15.9241 8.4375 15.5685C8.57691 15.4565 8.75663 15.4027 8.93714 15.4187C9.02651 15.4267 9.11339 15.4516 9.19281 15.492C9.27224 15.5324 9.34264 15.5876 9.40002 15.6543C9.51588 15.789 9.57163 15.9627 9.55499 16.1372C9.53835 16.3116 9.45068 16.4725 9.31127 16.5845C8.61407 17.147 7.73469 17.4551 6.82648 17.4551C5.91828 17.4551 5.03889 17.147 4.34169 16.5845C4.20229 16.4725 4.11462 16.3116 4.09798 16.1372C4.08134 15.9627 4.13708 15.789 4.25295 15.6543C4.36882 15.5196 4.53532 15.4348 4.71583 15.4187C4.89633 15.4027 5.07606 15.4565 5.21546 15.5685C5.67179 15.9241 6.24031 16.118 6.82648 16.118Z" fill="#6B8ADF"/>
<path d="M5.40319 13.326C5.22285 13.326 5.04983 13.257 4.92193 13.1341C4.85847 13.0723 4.78297 13.0232 4.69979 12.9897C4.6166 12.9562 4.52738 12.939 4.43726 12.939C4.34715 12.939 4.25792 12.9562 4.17474 12.9897C4.09155 13.0232 4.01605 13.0723 3.95259 13.1341C3.89139 13.2032 3.81609 13.2593 3.7314 13.2989C3.64671 13.3385 3.55446 13.3607 3.46045 13.3642C3.36644 13.3677 3.27269 13.3524 3.18509 13.3193C3.09749 13.2861 3.01793 13.2358 2.9514 13.1715C2.88488 13.1072 2.83282 13.0303 2.7985 12.9457C2.76418 12.861 2.74834 12.7704 2.75197 12.6795C2.7556 12.5887 2.77863 12.4995 2.8196 12.4177C2.86058 12.3358 2.91862 12.2631 2.99008 12.2039C3.38073 11.8457 3.89873 11.646 4.43726 11.646C4.97579 11.646 5.49379 11.8457 5.88445 12.2039C6.01159 12.3275 6.08295 12.4947 6.08295 12.669C6.08295 12.8433 6.01159 13.0105 5.88445 13.1341C5.75655 13.257 5.58353 13.326 5.40319 13.326Z" fill="#6B8ADF"/>
<path d="M9.2157 11.646C9.75423 11.646 10.2722 11.8457 10.6629 12.2039C10.79 12.3275 10.8614 12.4947 10.8614 12.669C10.8614 12.8433 10.79 13.0105 10.6629 13.1341C10.535 13.257 10.362 13.326 10.1816 13.326C10.0013 13.326 9.82827 13.257 9.70037 13.1341C9.63691 13.0723 9.56141 13.0232 9.47823 12.9897C9.39504 12.9562 9.30582 12.939 9.2157 12.939C9.12559 12.939 9.03636 12.9562 8.95318 12.9897C8.86999 13.0232 8.79449 13.0723 8.73103 13.1341C8.60044 13.2422 8.43246 13.2987 8.26066 13.2923C8.08886 13.2859 7.92589 13.217 7.80431 13.0995C7.68274 12.982 7.61152 12.8245 7.60488 12.6585C7.59825 12.4925 7.65669 12.3301 7.76852 12.2039C8.15918 11.8457 8.67717 11.646 9.2157 11.646Z" fill="#6B8ADF"/>
<path d="M17.1735 0C15.8234 0 14.5036 0.386923 13.381 1.11184C12.2584 1.83676 11.3835 2.86711 10.8668 4.07261C10.3501 5.2781 10.2149 6.60459 10.4783 7.88434C10.7417 9.16408 11.3919 10.3396 12.3466 11.2623C13.3012 12.1849 14.5176 12.8132 15.8418 13.0678C17.1659 13.3223 18.5385 13.1917 19.7858 12.6924C21.0332 12.193 22.0993 11.3474 22.8494 10.2625C23.5995 9.17761 23.9999 7.90209 23.9999 6.59727C23.9999 5.73091 23.8233 4.87302 23.4802 4.07261C23.1372 3.27219 22.6344 2.54491 22.0005 1.9323C21.3666 1.31968 20.6141 0.833732 19.7858 0.502188C18.9576 0.170644 18.07 0 17.1735 0Z" fill="white"/>
<path d="M17.1737 9.25309C17.7598 9.25309 18.3283 9.44699 18.7847 9.80257C18.9241 9.91455 19.1038 9.96842 19.2843 9.95234C19.3737 9.94437 19.4606 9.91947 19.54 9.87906C19.6194 9.83865 19.6898 9.78351 19.7472 9.7168C19.8631 9.58207 19.9188 9.40838 19.9022 9.23393C19.8855 9.05948 19.7978 8.89857 19.6584 8.78658C18.9612 8.2241 18.0819 7.91599 17.1737 7.91599C16.2654 7.91599 15.3861 8.2241 14.6889 8.78658C14.5495 8.89857 14.4618 9.05948 14.4451 9.23393C14.4285 9.40838 14.4842 9.58207 14.6001 9.7168C14.716 9.85153 14.8825 9.93625 15.063 9.95234C15.2435 9.96842 15.4232 9.91455 15.5626 9.80257C16.019 9.44699 16.5875 9.25309 17.1737 9.25309Z" fill="#6A84E1"/>
<path d="M15.7504 4.18476C15.57 4.18476 15.397 4.25373 15.2691 4.3766C15.2056 4.43844 15.1301 4.48751 15.047 4.52101C14.9638 4.5545 14.8745 4.57175 14.7844 4.57175C14.6943 4.57175 14.6051 4.5545 14.5219 4.52101C14.4387 4.48751 14.3632 4.43844 14.2998 4.3766C14.2386 4.30754 14.1633 4.25145 14.0786 4.21185C13.9939 4.17225 13.9016 4.15 13.8076 4.14649C13.7136 4.14298 13.6199 4.15829 13.5323 4.19146C13.4447 4.22462 13.3651 4.27493 13.2986 4.33923C13.232 4.40352 13.18 4.48041 13.1457 4.56507C13.1114 4.64973 13.0955 4.74033 13.0991 4.83119C13.1028 4.92204 13.1258 5.01119 13.1668 5.09304C13.2077 5.17489 13.2658 5.24767 13.3372 5.30682C13.7279 5.66505 14.2459 5.86476 14.7844 5.86476C15.323 5.86476 15.841 5.66505 16.2316 5.30682C16.3588 5.18321 16.4301 5.016 16.4301 4.84171C16.4301 4.66742 16.3588 4.50021 16.2316 4.3766C16.1037 4.25373 15.9307 4.18476 15.7504 4.18476Z" fill="#6A84E1"/>
<path d="M19.5629 5.826C20.1014 5.826 20.6194 5.62629 21.0101 5.26806C21.1372 5.14445 21.2086 4.97724 21.2086 4.80295C21.2086 4.62866 21.1372 4.46145 21.0101 4.33784C20.8822 4.21497 20.7091 4.146 20.5288 4.146C20.3485 4.146 20.1754 4.21497 20.0475 4.33784C19.9841 4.39968 19.9086 4.44875 19.8254 4.48225C19.7422 4.51574 19.653 4.53299 19.5629 4.53299C19.4728 4.53299 19.3835 4.51574 19.3003 4.48225C19.2172 4.44875 19.1417 4.39968 19.0782 4.33784C18.9476 4.22976 18.7796 4.17328 18.6078 4.1797C18.436 4.18611 18.2731 4.25494 18.1515 4.37243C18.0299 4.48993 17.9587 4.64743 17.9521 4.81347C17.9454 4.97951 18.0039 5.14185 18.1157 5.26806C18.5063 5.62629 19.0243 5.826 19.5629 5.826Z" fill="#6A84E1"/>
</svg>
